<svg xmlns="http://www.w3.org/2000/svg" width="16" height="16" viewBox="0 0 16 16">
  <path d="M8 2v12M2 8h12M5.5 4.5 8 2l2.5 2.5M5.5 11.5 8 14l2.5-2.5M4.5 5.5 2 8l2.5 2.5M11.5 5.5 14 8l-2.5 2.5" fill="none" stroke="#1c1e22" stroke-width="2.2" stroke-linecap="round" stroke-linejoin="round"/>
  <path d="M8 2v12M2 8h12M5.5 4.5 8 2l2.5 2.5M5.5 11.5 8 14l2.5-2.5M4.5 5.5 2 8l2.5 2.5M11.5 5.5 14 8l-2.5 2.5" fill="none" stroke="#d1d3d0" stroke-width="1" stroke-linecap="round" stroke-linejoin="round"/>
</svg>
